# Blender v2.79 (sub 0) OBJ File: ''
# www.blender.org
mtllib pacman.mtl
o Sphere
v -0.008350 0.880134 -0.378467
v -0.008350 -1.043746 0.004217
v -0.008350 0.956254 0.004217
v 0.262248 0.880134 -0.266381
v 0.491650 0.663361 -0.495783
v 0.644931 0.338938 -0.649065
v -0.064118 -0.043746 -0.702890
v 0.644931 -0.426429 -0.649065
v 0.491650 -0.750852 -0.495783
v 0.262248 -0.967625 -0.266381
v 0.374333 0.880134 0.004217
v 0.698756 0.663361 0.004217
v 0.915529 0.338938 0.004217
v -0.230412 -0.043746 0.004217
v 0.915529 -0.426429 0.004217
v 0.698756 -0.750852 0.004217
v 0.374333 -0.967625 0.004217
v 0.262248 0.880134 0.274815
v 0.491650 0.663361 0.504217
v 0.644931 0.338938 0.657498
v -0.064118 -0.043746 0.711323
v 0.644931 -0.426429 0.657498
v 0.491650 -0.750852 0.504217
v 0.262248 -0.967625 0.274815
v -0.008350 0.880134 0.386900
v -0.008350 0.663361 0.711323
v -0.008350 0.338938 0.928096
v -0.008350 -0.043746 1.004216
v -0.008350 -0.426429 0.928096
v -0.008350 -0.750852 0.711323
v -0.008350 -0.967625 0.386900
v -0.278948 0.880134 0.274815
v -0.508350 0.663361 0.504217
v -0.661631 0.338938 0.657498
v -0.715457 -0.043746 0.711323
v -0.661631 -0.426429 0.657498
v -0.508350 -0.750852 0.504217
v -0.278948 -0.967625 0.274815
v -0.391034 0.880134 0.004217
v -0.715457 0.663361 0.004217
v -0.932229 0.338938 0.004217
v -1.008350 -0.043746 0.004217
v -0.932229 -0.426429 0.004217
v -0.715457 -0.750852 0.004217
v -0.391034 -0.967625 0.004217
v -0.278948 0.880134 -0.266381
v -0.508350 0.663361 -0.495783
v -0.661632 0.338938 -0.649065
v -0.715457 -0.043746 -0.702890
v -0.661632 -0.426429 -0.649065
v -0.508350 -0.750852 -0.495783
v -0.278948 -0.967625 -0.266381
v -0.008350 0.663361 -0.702890
v -0.008350 0.338938 -0.919662
v -0.008350 -0.043746 -0.995783
v -0.008350 -0.426429 -0.919662
v -0.008350 -0.750852 -0.702890
v -0.008350 -0.967625 -0.378467
vn 0.2243 -0.8103 -0.5414
vn 0.6107 0.4558 -0.6475
vn 0.3256 0.5253 -0.7862
vn 0.0805 0.9776 -0.1945
vn 0.0805 -0.9776 -0.1945
vn 0.3256 -0.5253 -0.7862
vn 0.6107 -0.4558 -0.6475
vn 0.2243 0.8103 -0.5414
vn 0.1945 0.9776 -0.0805
vn 0.1945 -0.9776 -0.0805
vn 0.7862 -0.5253 -0.3256
vn 0.3820 -0.9237 -0.0293
vn 0.5414 0.8103 -0.2243
vn 0.5414 -0.8103 -0.2243
vn 0.3820 0.9237 -0.0293
vn 0.7862 0.5253 -0.3256
vn 0.7862 -0.5253 0.3256
vn 0.3820 -0.9237 0.0293
vn 0.5414 0.8103 0.2243
vn 0.5414 -0.8103 0.2243
vn 0.3820 0.9237 0.0293
vn 0.7862 0.5253 0.3256
vn 0.1945 0.9776 0.0805
vn 0.1945 -0.9776 0.0805
vn 0.2243 -0.8103 0.5414
vn 0.6107 0.4558 0.6475
vn 0.3256 0.5253 0.7862
vn 0.0805 0.9776 0.1945
vn 0.0805 -0.9776 0.1945
vn 0.3256 -0.5253 0.7862
vn 0.6107 -0.4558 0.6475
vn 0.2243 0.8103 0.5414
vn -0.3764 -0.1807 0.9087
vn -0.3256 0.5253 0.7862
vn -0.0805 0.9776 0.1945
vn -0.0805 -0.9776 0.1945
vn -0.3256 -0.5253 0.7862
vn -0.3764 0.1807 0.9087
vn -0.2243 0.8103 0.5414
vn -0.2243 -0.8103 0.5414
vn -0.1945 -0.9776 0.0805
vn -0.7862 -0.5253 0.3256
vn -0.9087 0.1807 0.3764
vn -0.5414 0.8103 0.2243
vn -0.5414 -0.8103 0.2243
vn -0.9087 -0.1807 0.3764
vn -0.7862 0.5253 0.3256
vn -0.1945 0.9776 0.0805
vn -0.9087 0.1807 -0.3764
vn -0.5414 0.8103 -0.2243
vn -0.5414 -0.8103 -0.2243
vn -0.9087 -0.1807 -0.3764
vn -0.7862 0.5253 -0.3256
vn -0.1945 0.9776 -0.0805
vn -0.1945 -0.9776 -0.0805
vn -0.7862 -0.5253 -0.3256
vn -0.2243 -0.8103 -0.5414
vn -0.3764 -0.1807 -0.9087
vn -0.3256 0.5253 -0.7862
vn -0.0805 0.9776 -0.1945
vn -0.0805 -0.9776 -0.1945
vn -0.3256 -0.5253 -0.7862
vn -0.3764 0.1807 -0.9087
vn -0.2243 0.8103 -0.5414
usemtl None
s off
f 58//1 57//1 9//1 10//1
f 56//2 55//2 7//2 8//2
f 54//3 53//3 5//3 6//3
f 1//4 3//4 4//4
f 2//5 58//5 10//5
f 57//6 56//6 8//6 9//6
f 55//7 54//7 6//7 7//7
f 53//8 1//8 4//8 5//8
f 4//9 3//9 11//9
f 2//10 10//10 17//10
f 9//11 8//11 15//11 16//11
f 7//12 6//12 13//12 14//12
f 5//13 4//13 11//13 12//13
f 10//14 9//14 16//14 17//14
f 8//15 7//15 14//15 15//15
f 6//16 5//16 12//16 13//16
f 16//17 15//17 22//17 23//17
f 14//18 13//18 20//18 21//18
f 12//19 11//19 18//19 19//19
f 17//20 16//20 23//20 24//20
f 15//21 14//21 21//21 22//21
f 13//22 12//22 19//22 20//22
f 11//23 3//23 18//23
f 2//24 17//24 24//24
f 24//25 23//25 30//25 31//25
f 22//26 21//26 28//26 29//26
f 20//27 19//27 26//27 27//27
f 18//28 3//28 25//28
f 2//29 24//29 31//29
f 23//30 22//30 29//30 30//30
f 21//31 20//31 27//31 28//31
f 19//32 18//32 25//32 26//32
f 29//33 28//33 35//33 36//33
f 27//34 26//34 33//34 34//34
f 25//35 3//35 32//35
f 2//36 31//36 38//36
f 30//37 29//37 36//37 37//37
f 28//38 27//38 34//38 35//38
f 26//39 25//39 32//39 33//39
f 31//40 30//40 37//40 38//40
f 2//41 38//41 45//41
f 37//42 36//42 43//42 44//42
f 35//43 34//43 41//43 42//43
f 33//44 32//44 39//44 40//44
f 38//45 37//45 44//45 45//45
f 36//46 35//46 42//46 43//46
f 34//47 33//47 40//47 41//47
f 32//48 3//48 39//48
f 42//49 41//49 48//49 49//49
f 40//50 39//50 46//50 47//50
f 45//51 44//51 51//51 52//51
f 43//52 42//52 49//52 50//52
f 41//53 40//53 47//53 48//53
f 39//54 3//54 46//54
f 2//55 45//55 52//55
f 44//56 43//56 50//56 51//56
f 52//57 51//57 57//57 58//57
f 50//58 49//58 55//58 56//58
f 48//59 47//59 53//59 54//59
f 46//60 3//60 1//60
f 2//61 52//61 58//61
f 51//62 50//62 56//62 57//62
f 49//63 48//63 54//63 55//63
f 47//64 46//64 1//64 53//64
