# Blender v2.79 (sub 0) OBJ File: 'évier.blend'
# www.blender.org
mtllib évier.mtl
o Cube
v 1.000000 -1.000000 -1.000000
v 1.000000 -1.000000 0.933664
v -1.000000 -1.000000 0.933663
v -1.000000 -1.000000 -1.000000
v 1.000000 -0.110490 -0.999999
v 0.999999 -0.110490 1.000001
v -1.000000 -0.110490 1.000000
v -1.319134 0.576170 1.239349
v 1.000000 -1.000000 -1.000000
v 1.000000 -1.000000 0.933664
v -1.000000 -1.000000 0.933663
v -1.000000 -1.000000 -1.000000
v 1.000000 -0.110490 -0.999999
v 0.999999 -0.110490 1.000001
v -1.000000 -0.110490 1.000000
v -1.000000 -0.110490 -1.000000
v -1.319133 0.576170 -1.000208
v -1.000000 -0.110490 -1.000000
v -1.000000 -0.110490 1.000000
v 0.999999 -0.110490 1.000001
v 1.000000 -0.110490 -0.999999
v -1.000000 -0.110490 1.000000
v 0.999999 -0.110490 1.000001
v 1.000000 -0.110490 -0.999999
v 1.239349 0.576170 1.239350
v 1.239350 0.576170 -1.000208
v -1.319134 0.576170 1.239349
v 1.239349 0.576170 1.239350
v 1.239350 0.576170 -1.000208
v -0.506181 -1.002454 -1.073725
v -0.506181 1.135126 -1.073725
v 0.494609 -1.002454 -1.073725
v 0.494609 1.135126 -1.073725
v -0.327166 1.294216 -1.074348
v 0.315594 1.294216 -1.074348
vn 0.0000 1.0000 0.0000
vn 0.0000 0.0000 1.0000
vn -1.0000 -0.0000 -0.0000
vn 0.0000 0.0744 -0.9972
vn 0.0000 0.3291 -0.9443
vn 0.9443 -0.3291 0.0000
vn 0.0000 -1.0000 0.0000
vn 1.0000 0.0000 0.0000
vn -0.0000 -0.0744 0.9972
vn 0.0000 0.0000 -1.0000
vn 0.0000 -0.0003 -1.0000
vn -0.9068 -0.4215 -0.0000
vn -0.0000 -0.3291 0.9443
vn -0.9443 0.3291 -0.0000
vn 0.0000 0.0039 1.0000
usemtl Material
s off
f 1//1 4//1 3//1 2//1
f 15//2 14//2 20//2 19//2
f 1//3 2//3 6//3 5//3
f 2//4 3//4 7//4 6//4
f 23//5 22//5 27//5 28//5
f 20//6 21//6 26//6 25//6
f 9//7 10//7 11//7 12//7
f 13//2 16//2 18//2 21//2
f 9//8 13//8 14//8 10//8
f 10//9 14//9 15//9 11//9
f 11//3 15//3 16//3 12//3
f 13//10 9//10 12//10 16//10
f 21//11 18//11 17//11 26//11
f 18//12 19//12 8//12 17//12
f 19//13 20//13 25//13 8//13
f 16//2 15//2 19//2 18//2
f 24//14 23//14 28//14 29//14
f 5//2 6//2 23//2 24//2
f 14//2 13//2 21//2 20//2
f 6//2 7//2 22//2 23//2
f 32//2 33//2 31//2 30//2
f 31//15 33//15 35//15 34//15
o Grid.001
v 0.004494 1.629381 -0.249063
v 0.004494 1.791797 -0.435849
v 0.004494 1.892199 -0.734849
v 0.004494 1.836092 -0.971836
v 0.004494 1.644146 -1.099562
v 0.004494 1.363610 -1.085544
v 0.004494 1.068309 -1.083337
v 0.004471 2.000486 -0.902537
v -0.115444 2.000486 -0.852867
v -0.165114 2.000486 -0.732953
v -0.115444 2.000486 -0.613038
v 0.004471 2.000486 -0.563368
v 0.124385 2.000486 -0.613038
v 0.174055 2.000486 -0.732953
v 0.124385 2.000486 -0.852867
v 0.004494 2.001342 -0.736975
l 36 37
l 37 38
l 38 39
l 39 40
l 40 41
l 41 42
l 44 43
l 45 44
l 46 45
l 47 46
l 48 47
l 49 48
l 50 49
l 43 50
l 38 51
